<mxfile host="app.diagrams.net" agent="Mozilla/5.0 (Windows NT 10.0; Win64; x64) AppleWebKit/537.36 (KHTML, like Gecko) Chrome/130.0.0.0 Safari/537.36" version="24.8.3">
  <diagram name="Страница — 1" id="HoLshnCDDDH5uAc-GFAD">
    <mxGraphModel dx="7170" dy="3900" grid="1" gridSize="10" guides="1" tooltips="1" connect="1" arrows="1" fold="1" page="1" pageScale="1" pageWidth="827" pageHeight="1169" math="0" shadow="0">
      <root>
        <mxCell id="0" />
        <mxCell id="1" parent="0" />
        <mxCell id="HFtfVX_ovQ1HP7ZbWY39-1" value="" style="rounded=0;whiteSpace=wrap;html=1;fillColor=#dae8fc;strokeColor=#6c8ebf;" parent="1" vertex="1">
          <mxGeometry x="30" y="120" width="770" height="1500" as="geometry" />
        </mxCell>
        <mxCell id="HFtfVX_ovQ1HP7ZbWY39-2" value="&lt;font style=&quot;font-size: 36px;&quot;&gt;Welcome to My styled webpage&lt;/font&gt;" style="rounded=0;whiteSpace=wrap;html=1;fillColor=#d5e8d4;strokeColor=#82b366;" parent="1" vertex="1">
          <mxGeometry x="60" y="150" width="690" height="60" as="geometry" />
        </mxCell>
        <mxCell id="HFtfVX_ovQ1HP7ZbWY39-3" value="&lt;h1 style=&quot;margin-top: 0px;&quot;&gt;Heading&lt;/h1&gt;&lt;p&gt;Lorem ipsum dolor sit amet, consectetur adipisicing elit, sed do eiusmod tempor incididunt ut labore et dolore magna aliqua.&lt;br&gt;Lorem ipsum dolor sit amet, consectetur adipisicing elit, sed do eiusmod tempor incididunt ut labore et dolore magna aliqua.&lt;/p&gt;&lt;p&gt;Lorem ipsum dolor sit amet, consectetur adipisicing elit, sed do eiusmod tempor incididunt ut labore et dolore magna aliqua.&lt;span style=&quot;background-color: initial;&quot;&gt;Lorem ipsum dolor sit amet, consectetur adipisicing elit, sed do eiusmod tempor incididunt ut labore et dolore magna aliqua.&lt;/span&gt;&lt;span style=&quot;background-color: initial;&quot;&gt;Lorem ipsum dolor sit amet, consectetur adipisicing elit, sed do eiusmod tempor incididunt ut labore et dolore magna aliqua.&lt;/span&gt;&lt;span style=&quot;background-color: initial;&quot;&gt;Lorem ipsum dolor sit amet, consectetur adipisicing elit, sed do eiusmod tempor incididunt ut labore et dolore magna aliqua.&lt;/span&gt;&lt;span style=&quot;background-color: initial;&quot;&gt;Lorem ipsum dolor sit amet, consectetur adipisicing elit, sed do eiusmod tempor incididunt ut labore et dolore magna aliqua.&lt;/span&gt;&lt;span style=&quot;background-color: initial;&quot;&gt;Lorem ipsum dolor sit amet, consectetur adipisicing elit, sed do eiusmod tempor incididunt ut labore et dolore magna aliqua.&lt;/span&gt;&lt;span style=&quot;background-color: initial;&quot;&gt;Lorem ipsum dolor sit amet, consectetur adipisicing elit, sed do eiusmod tempor incididunt ut labore et dolore magna aliqua.&lt;/span&gt;&lt;/p&gt;" style="text;html=1;whiteSpace=wrap;overflow=hidden;rounded=0;" parent="1" vertex="1">
          <mxGeometry x="80" y="260" width="700" height="190" as="geometry" />
        </mxCell>
        <mxCell id="HFtfVX_ovQ1HP7ZbWY39-4" value="&lt;h1 style=&quot;margin-top: 0px;&quot;&gt;Heading&lt;/h1&gt;&lt;p&gt;Lorem ipsum dolor sit amet, consectetur adipisicing elit, sed do eiusmod tempor incididunt ut labore et dolore magna aliqua.&lt;br&gt;Lorem ipsum dolor sit amet, consectetur adipisicing elit, sed do eiusmod tempor incididunt ut labore et dolore magna aliqua.&lt;/p&gt;&lt;p&gt;Lorem ipsum dolor sit amet, consectetur adipisicing elit, sed do eiusmod tempor incididunt ut labore et dolore magna aliqua.&lt;span style=&quot;background-color: initial;&quot;&gt;Lorem ipsum dolor sit amet, consectetur adipisicing elit, sed do eiusmod tempor incididunt ut labore et dolore magna aliqua.&lt;/span&gt;&lt;span style=&quot;background-color: initial;&quot;&gt;Lorem ipsum dolor sit amet, consectetur adipisicing elit, sed do eiusmod tempor incididunt ut labore et dolore magna aliqua.&lt;/span&gt;&lt;span style=&quot;background-color: initial;&quot;&gt;Lorem ipsum dolor sit amet, consectetur adipisicing elit, sed do eiusmod tempor incididunt ut labore et dolore magna aliqua.&lt;/span&gt;&lt;span style=&quot;background-color: initial;&quot;&gt;Lorem ipsum dolor sit amet, consectetur adipisicing elit, sed do eiusmod tempor incididunt ut labore et dolore magna aliqua.&lt;/span&gt;&lt;span style=&quot;background-color: initial;&quot;&gt;Lorem ipsum dolor sit amet, consectetur adipisicing elit, sed do eiusmod tempor incididunt ut labore et dolore magna aliqua.&lt;/span&gt;&lt;span style=&quot;background-color: initial;&quot;&gt;Lorem ipsum dolor sit amet, consectetur adipisicing elit, sed do eiusmod tempor incididunt ut labore et dolore magna aliqua.&lt;/span&gt;&lt;/p&gt;" style="text;html=1;whiteSpace=wrap;overflow=hidden;rounded=0;" parent="1" vertex="1">
          <mxGeometry x="80" y="470" width="700" height="190" as="geometry" />
        </mxCell>
        <mxCell id="HFtfVX_ovQ1HP7ZbWY39-5" value="&lt;h1 style=&quot;margin-top: 0px;&quot;&gt;Heading&lt;/h1&gt;&lt;p&gt;Lorem ipsum dolor sit amet, consectetur adipisicing elit, sed do eiusmod tempor incididunt ut labore et dolore magna aliqua.&lt;br&gt;Lorem ipsum dolor sit amet, consectetur adipisicing elit, sed do eiusmod tempor incididunt ut labore et dolore magna aliqua.&lt;/p&gt;&lt;p&gt;Lorem ipsum dolor sit amet, consectetur adipisicing elit, sed do eiusmod tempor incididunt ut labore et dolore magna aliqua.&lt;span style=&quot;background-color: initial;&quot;&gt;Lorem ipsum dolor sit amet, consectetur adipisicing elit, sed do eiusmod tempor incididunt ut labore et dolore magna aliqua.&lt;/span&gt;&lt;span style=&quot;background-color: initial;&quot;&gt;Lorem ipsum dolor sit amet, consectetur adipisicing elit, sed do eiusmod tempor incididunt ut labore et dolore magna aliqua.&lt;/span&gt;&lt;span style=&quot;background-color: initial;&quot;&gt;Lorem ipsum dolor sit amet, consectetur adipisicing elit, sed do eiusmod tempor incididunt ut labore et dolore magna aliqua.&lt;/span&gt;&lt;span style=&quot;background-color: initial;&quot;&gt;Lorem ipsum dolor sit amet, consectetur adipisicing elit, sed do eiusmod tempor incididunt ut labore et dolore magna aliqua.&lt;/span&gt;&lt;span style=&quot;background-color: initial;&quot;&gt;Lorem ipsum dolor sit amet, consectetur adipisicing elit, sed do eiusmod tempor incididunt ut labore et dolore magna aliqua.&lt;/span&gt;&lt;span style=&quot;background-color: initial;&quot;&gt;Lorem ipsum dolor sit amet, consectetur adipisicing elit, sed do eiusmod tempor incididunt ut labore et dolore magna aliqua.&lt;/span&gt;&lt;/p&gt;" style="text;html=1;whiteSpace=wrap;overflow=hidden;rounded=0;" parent="1" vertex="1">
          <mxGeometry x="80" y="670" width="630" height="190" as="geometry" />
        </mxCell>
        <mxCell id="HFtfVX_ovQ1HP7ZbWY39-6" value="" style="shape=image;html=1;verticalLabelPosition=bottom;verticalAlign=top;imageAspect=1;aspect=fixed;image=img/clipart/Gear_128x128.png" parent="1" vertex="1">
          <mxGeometry x="28" y="250" width="52" height="61" as="geometry" />
        </mxCell>
        <mxCell id="HFtfVX_ovQ1HP7ZbWY39-7" value="" style="shape=image;html=1;verticalLabelPosition=bottom;verticalAlign=top;imageAspect=1;aspect=fixed;image=img/clipart/Gear_128x128.png" parent="1" vertex="1">
          <mxGeometry x="20" y="450" width="52" height="61" as="geometry" />
        </mxCell>
        <mxCell id="HFtfVX_ovQ1HP7ZbWY39-8" value="" style="shape=image;html=1;verticalLabelPosition=bottom;verticalAlign=top;imageAspect=1;aspect=fixed;image=img/clipart/Gear_128x128.png" parent="1" vertex="1">
          <mxGeometry x="20" y="660" width="52" height="61" as="geometry" />
        </mxCell>
        <mxCell id="HFtfVX_ovQ1HP7ZbWY39-9" value="Assets" style="childLayout=tableLayout;recursiveResize=0;strokeColor=#98bf21;fillColor=#A7C942;shadow=1;" parent="1" vertex="1">
          <mxGeometry x="125" y="910" width="610" height="290" as="geometry" />
        </mxCell>
        <mxCell id="HFtfVX_ovQ1HP7ZbWY39-10" style="shape=tableRow;horizontal=0;startSize=0;swimlaneHead=0;swimlaneBody=0;top=0;left=0;bottom=0;right=0;dropTarget=0;collapsible=0;recursiveResize=0;expand=0;fontStyle=0;strokeColor=inherit;fillColor=#ffffff;" parent="HFtfVX_ovQ1HP7ZbWY39-9" vertex="1">
          <mxGeometry width="610" height="60" as="geometry" />
        </mxCell>
        <mxCell id="HFtfVX_ovQ1HP7ZbWY39-11" value="Title 1" style="connectable=0;recursiveResize=0;strokeColor=inherit;fillColor=#A7C942;align=center;fontStyle=1;fontColor=#FFFFFF;html=1;" parent="HFtfVX_ovQ1HP7ZbWY39-10" vertex="1">
          <mxGeometry width="203" height="60" as="geometry">
            <mxRectangle width="203" height="60" as="alternateBounds" />
          </mxGeometry>
        </mxCell>
        <mxCell id="HFtfVX_ovQ1HP7ZbWY39-12" value="Title 2" style="connectable=0;recursiveResize=0;strokeColor=inherit;fillColor=#A7C942;align=center;fontStyle=1;fontColor=#FFFFFF;html=1;" parent="HFtfVX_ovQ1HP7ZbWY39-10" vertex="1">
          <mxGeometry x="203" width="211" height="60" as="geometry">
            <mxRectangle width="211" height="60" as="alternateBounds" />
          </mxGeometry>
        </mxCell>
        <mxCell id="HFtfVX_ovQ1HP7ZbWY39-13" value="Title 3" style="connectable=0;recursiveResize=0;strokeColor=inherit;fillColor=#A7C942;align=center;fontStyle=1;fontColor=#FFFFFF;html=1;" parent="HFtfVX_ovQ1HP7ZbWY39-10" vertex="1">
          <mxGeometry x="414" width="196" height="60" as="geometry">
            <mxRectangle width="196" height="60" as="alternateBounds" />
          </mxGeometry>
        </mxCell>
        <mxCell id="HFtfVX_ovQ1HP7ZbWY39-14" value="" style="shape=tableRow;horizontal=0;startSize=0;swimlaneHead=0;swimlaneBody=0;top=0;left=0;bottom=0;right=0;dropTarget=0;collapsible=0;recursiveResize=0;expand=0;fontStyle=0;strokeColor=inherit;fillColor=#ffffff;" parent="HFtfVX_ovQ1HP7ZbWY39-9" vertex="1">
          <mxGeometry y="60" width="610" height="58" as="geometry" />
        </mxCell>
        <mxCell id="HFtfVX_ovQ1HP7ZbWY39-15" value="Value 1" style="connectable=0;recursiveResize=0;strokeColor=inherit;fillColor=inherit;align=center;whiteSpace=wrap;html=1;" parent="HFtfVX_ovQ1HP7ZbWY39-14" vertex="1">
          <mxGeometry width="203" height="58" as="geometry">
            <mxRectangle width="203" height="58" as="alternateBounds" />
          </mxGeometry>
        </mxCell>
        <mxCell id="HFtfVX_ovQ1HP7ZbWY39-16" value="Value 2" style="connectable=0;recursiveResize=0;strokeColor=inherit;fillColor=inherit;align=center;whiteSpace=wrap;html=1;" parent="HFtfVX_ovQ1HP7ZbWY39-14" vertex="1">
          <mxGeometry x="203" width="211" height="58" as="geometry">
            <mxRectangle width="211" height="58" as="alternateBounds" />
          </mxGeometry>
        </mxCell>
        <mxCell id="HFtfVX_ovQ1HP7ZbWY39-17" value="Value 3" style="connectable=0;recursiveResize=0;strokeColor=inherit;fillColor=inherit;align=center;whiteSpace=wrap;html=1;" parent="HFtfVX_ovQ1HP7ZbWY39-14" vertex="1">
          <mxGeometry x="414" width="196" height="58" as="geometry">
            <mxRectangle width="196" height="58" as="alternateBounds" />
          </mxGeometry>
        </mxCell>
        <mxCell id="HFtfVX_ovQ1HP7ZbWY39-18" value="" style="shape=tableRow;horizontal=0;startSize=0;swimlaneHead=0;swimlaneBody=0;top=0;left=0;bottom=0;right=0;dropTarget=0;collapsible=0;recursiveResize=0;expand=0;fontStyle=1;strokeColor=inherit;fillColor=#EAF2D3;" parent="HFtfVX_ovQ1HP7ZbWY39-9" vertex="1">
          <mxGeometry y="118" width="610" height="56" as="geometry" />
        </mxCell>
        <mxCell id="HFtfVX_ovQ1HP7ZbWY39-19" value="Value 4" style="connectable=0;recursiveResize=0;strokeColor=inherit;fillColor=inherit;whiteSpace=wrap;html=1;" parent="HFtfVX_ovQ1HP7ZbWY39-18" vertex="1">
          <mxGeometry width="203" height="56" as="geometry">
            <mxRectangle width="203" height="56" as="alternateBounds" />
          </mxGeometry>
        </mxCell>
        <mxCell id="HFtfVX_ovQ1HP7ZbWY39-20" value="Value 5" style="connectable=0;recursiveResize=0;strokeColor=inherit;fillColor=inherit;whiteSpace=wrap;html=1;" parent="HFtfVX_ovQ1HP7ZbWY39-18" vertex="1">
          <mxGeometry x="203" width="211" height="56" as="geometry">
            <mxRectangle width="211" height="56" as="alternateBounds" />
          </mxGeometry>
        </mxCell>
        <mxCell id="HFtfVX_ovQ1HP7ZbWY39-21" value="Value 6" style="connectable=0;recursiveResize=0;strokeColor=inherit;fillColor=inherit;whiteSpace=wrap;html=1;" parent="HFtfVX_ovQ1HP7ZbWY39-18" vertex="1">
          <mxGeometry x="414" width="196" height="56" as="geometry">
            <mxRectangle width="196" height="56" as="alternateBounds" />
          </mxGeometry>
        </mxCell>
        <mxCell id="HFtfVX_ovQ1HP7ZbWY39-22" value="" style="shape=tableRow;horizontal=0;startSize=0;swimlaneHead=0;swimlaneBody=0;top=0;left=0;bottom=0;right=0;dropTarget=0;collapsible=0;recursiveResize=0;expand=0;fontStyle=0;strokeColor=inherit;fillColor=#ffffff;" parent="HFtfVX_ovQ1HP7ZbWY39-9" vertex="1">
          <mxGeometry y="174" width="610" height="60" as="geometry" />
        </mxCell>
        <mxCell id="HFtfVX_ovQ1HP7ZbWY39-23" value="Value 7" style="connectable=0;recursiveResize=0;strokeColor=inherit;fillColor=inherit;fontStyle=0;align=center;whiteSpace=wrap;html=1;" parent="HFtfVX_ovQ1HP7ZbWY39-22" vertex="1">
          <mxGeometry width="203" height="60" as="geometry">
            <mxRectangle width="203" height="60" as="alternateBounds" />
          </mxGeometry>
        </mxCell>
        <mxCell id="HFtfVX_ovQ1HP7ZbWY39-24" value="Value 8" style="connectable=0;recursiveResize=0;strokeColor=inherit;fillColor=inherit;fontStyle=0;align=center;whiteSpace=wrap;html=1;" parent="HFtfVX_ovQ1HP7ZbWY39-22" vertex="1">
          <mxGeometry x="203" width="211" height="60" as="geometry">
            <mxRectangle width="211" height="60" as="alternateBounds" />
          </mxGeometry>
        </mxCell>
        <mxCell id="HFtfVX_ovQ1HP7ZbWY39-25" value="Value 9" style="connectable=0;recursiveResize=0;strokeColor=inherit;fillColor=inherit;fontStyle=0;align=center;whiteSpace=wrap;html=1;" parent="HFtfVX_ovQ1HP7ZbWY39-22" vertex="1">
          <mxGeometry x="414" width="196" height="60" as="geometry">
            <mxRectangle width="196" height="60" as="alternateBounds" />
          </mxGeometry>
        </mxCell>
        <mxCell id="HFtfVX_ovQ1HP7ZbWY39-26" value="" style="shape=tableRow;horizontal=0;startSize=0;swimlaneHead=0;swimlaneBody=0;top=0;left=0;bottom=0;right=0;dropTarget=0;collapsible=0;recursiveResize=0;expand=0;fontStyle=1;strokeColor=inherit;fillColor=#EAF2D3;" parent="HFtfVX_ovQ1HP7ZbWY39-9" vertex="1">
          <mxGeometry y="234" width="610" height="56" as="geometry" />
        </mxCell>
        <mxCell id="HFtfVX_ovQ1HP7ZbWY39-27" value="Value 10" style="connectable=0;recursiveResize=0;strokeColor=inherit;fillColor=inherit;whiteSpace=wrap;html=1;" parent="HFtfVX_ovQ1HP7ZbWY39-26" vertex="1">
          <mxGeometry width="203" height="56" as="geometry">
            <mxRectangle width="203" height="56" as="alternateBounds" />
          </mxGeometry>
        </mxCell>
        <mxCell id="HFtfVX_ovQ1HP7ZbWY39-28" value="Value 11" style="connectable=0;recursiveResize=0;strokeColor=inherit;fillColor=inherit;whiteSpace=wrap;html=1;" parent="HFtfVX_ovQ1HP7ZbWY39-26" vertex="1">
          <mxGeometry x="203" width="211" height="56" as="geometry">
            <mxRectangle width="211" height="56" as="alternateBounds" />
          </mxGeometry>
        </mxCell>
        <mxCell id="HFtfVX_ovQ1HP7ZbWY39-29" value="Value 12" style="connectable=0;recursiveResize=0;strokeColor=inherit;fillColor=inherit;whiteSpace=wrap;html=1;" parent="HFtfVX_ovQ1HP7ZbWY39-26" vertex="1">
          <mxGeometry x="414" width="196" height="56" as="geometry">
            <mxRectangle width="196" height="56" as="alternateBounds" />
          </mxGeometry>
        </mxCell>
        <mxCell id="HFtfVX_ovQ1HP7ZbWY39-30" value="Label" style="label;whiteSpace=wrap;html=1;align=center;verticalAlign=bottom;spacingLeft=0;spacingBottom=4;imageAlign=center;imageVerticalAlign=top;image=img/clipart/Gear_128x128.png" parent="1" vertex="1">
          <mxGeometry x="110" y="1260" width="160" height="100" as="geometry" />
        </mxCell>
        <mxCell id="HFtfVX_ovQ1HP7ZbWY39-31" value="Label" style="label;whiteSpace=wrap;html=1;align=center;verticalAlign=bottom;spacingLeft=0;spacingBottom=4;imageAlign=center;imageVerticalAlign=top;image=img/clipart/Gear_128x128.png" parent="1" vertex="1">
          <mxGeometry x="325" y="1260" width="160" height="100" as="geometry" />
        </mxCell>
        <mxCell id="HFtfVX_ovQ1HP7ZbWY39-32" value="Label" style="label;whiteSpace=wrap;html=1;align=center;verticalAlign=bottom;spacingLeft=0;spacingBottom=4;imageAlign=center;imageVerticalAlign=top;image=img/clipart/Gear_128x128.png" parent="1" vertex="1">
          <mxGeometry x="570" y="1260" width="160" height="100" as="geometry" />
        </mxCell>
        <mxCell id="HFtfVX_ovQ1HP7ZbWY39-33" value="Label" style="html=1;whiteSpace=wrap;container=1;recursiveResize=0;collapsible=0;" parent="1" vertex="1">
          <mxGeometry x="90" y="1430" width="160" height="70" as="geometry" />
        </mxCell>
        <mxCell id="HFtfVX_ovQ1HP7ZbWY39-34" value="" style="triangle;html=1;whiteSpace=wrap;" parent="HFtfVX_ovQ1HP7ZbWY39-33" vertex="1">
          <mxGeometry x="20" y="20" width="20" height="30" as="geometry" />
        </mxCell>
        <mxCell id="HFtfVX_ovQ1HP7ZbWY39-35" value="Label" style="html=1;whiteSpace=wrap;container=1;recursiveResize=0;collapsible=0;" parent="1" vertex="1">
          <mxGeometry x="325" y="1430" width="160" height="70" as="geometry" />
        </mxCell>
        <mxCell id="HFtfVX_ovQ1HP7ZbWY39-36" value="" style="triangle;html=1;whiteSpace=wrap;" parent="HFtfVX_ovQ1HP7ZbWY39-35" vertex="1">
          <mxGeometry x="20" y="20" width="20" height="30" as="geometry" />
        </mxCell>
        <mxCell id="HFtfVX_ovQ1HP7ZbWY39-37" value="Label" style="html=1;whiteSpace=wrap;container=1;recursiveResize=0;collapsible=0;" parent="1" vertex="1">
          <mxGeometry x="575" y="1440" width="160" height="70" as="geometry" />
        </mxCell>
        <mxCell id="HFtfVX_ovQ1HP7ZbWY39-38" value="" style="triangle;html=1;whiteSpace=wrap;" parent="HFtfVX_ovQ1HP7ZbWY39-37" vertex="1">
          <mxGeometry x="20" y="20" width="20" height="30" as="geometry" />
        </mxCell>
        <mxCell id="HFtfVX_ovQ1HP7ZbWY39-65" style="edgeStyle=orthogonalEdgeStyle;rounded=0;orthogonalLoop=1;jettySize=auto;html=1;exitX=0.5;exitY=0;exitDx=0;exitDy=0;entryX=0.219;entryY=0.392;entryDx=0;entryDy=0;entryPerimeter=0;" parent="HFtfVX_ovQ1HP7ZbWY39-37" source="HFtfVX_ovQ1HP7ZbWY39-38" target="HFtfVX_ovQ1HP7ZbWY39-37" edge="1">
          <mxGeometry relative="1" as="geometry" />
        </mxCell>
        <mxCell id="HFtfVX_ovQ1HP7ZbWY39-39" value="" style="rounded=0;whiteSpace=wrap;html=1;fillColor=#d5e8d4;strokeColor=#82b366;" parent="1" vertex="1">
          <mxGeometry x="860" y="120" width="750" height="1190" as="geometry" />
        </mxCell>
        <mxCell id="HFtfVX_ovQ1HP7ZbWY39-40" value="" style="ellipse;whiteSpace=wrap;html=1;aspect=fixed;fillColor=#f8cecc;strokeColor=#b85450;" parent="1" vertex="1">
          <mxGeometry x="900" y="170" width="160" height="160" as="geometry" />
        </mxCell>
        <mxCell id="HFtfVX_ovQ1HP7ZbWY39-41" value="" style="ellipse;whiteSpace=wrap;html=1;aspect=fixed;fillColor=#f8cecc;strokeColor=#b85450;" parent="1" vertex="1">
          <mxGeometry x="900" y="380" width="160" height="160" as="geometry" />
        </mxCell>
        <mxCell id="HFtfVX_ovQ1HP7ZbWY39-42" value="" style="ellipse;whiteSpace=wrap;html=1;aspect=fixed;fillColor=#f8cecc;strokeColor=#b85450;" parent="1" vertex="1">
          <mxGeometry x="1160.5" y="170" width="160" height="160" as="geometry" />
        </mxCell>
        <mxCell id="HFtfVX_ovQ1HP7ZbWY39-43" value="" style="ellipse;whiteSpace=wrap;html=1;aspect=fixed;fillColor=#f8cecc;strokeColor=#b85450;" parent="1" vertex="1">
          <mxGeometry x="1420" y="160" width="160" height="160" as="geometry" />
        </mxCell>
        <mxCell id="HFtfVX_ovQ1HP7ZbWY39-44" value="" style="ellipse;whiteSpace=wrap;html=1;aspect=fixed;fillColor=#f8cecc;strokeColor=#b85450;" parent="1" vertex="1">
          <mxGeometry x="1160" y="370" width="160" height="160" as="geometry" />
        </mxCell>
        <mxCell id="HFtfVX_ovQ1HP7ZbWY39-45" value="" style="ellipse;whiteSpace=wrap;html=1;aspect=fixed;fillColor=#f8cecc;strokeColor=#b85450;" parent="1" vertex="1">
          <mxGeometry x="1420" y="370" width="160" height="160" as="geometry" />
        </mxCell>
        <mxCell id="HFtfVX_ovQ1HP7ZbWY39-46" value="" style="shape=image;html=1;verticalLabelPosition=bottom;verticalAlign=top;imageAspect=1;aspect=fixed;image=img/clipart/Gear_128x128.png" parent="1" vertex="1">
          <mxGeometry x="954" y="219.5" width="52" height="61" as="geometry" />
        </mxCell>
        <mxCell id="HFtfVX_ovQ1HP7ZbWY39-47" value="" style="shape=image;html=1;verticalLabelPosition=bottom;verticalAlign=top;imageAspect=1;aspect=fixed;image=img/clipart/Gear_128x128.png" parent="1" vertex="1">
          <mxGeometry x="1214" y="219.5" width="52" height="61" as="geometry" />
        </mxCell>
        <mxCell id="HFtfVX_ovQ1HP7ZbWY39-48" value="" style="shape=image;html=1;verticalLabelPosition=bottom;verticalAlign=top;imageAspect=1;aspect=fixed;image=img/clipart/Gear_128x128.png" parent="1" vertex="1">
          <mxGeometry x="1474" y="210.5" width="52" height="61" as="geometry" />
        </mxCell>
        <mxCell id="HFtfVX_ovQ1HP7ZbWY39-49" value="" style="shape=image;html=1;verticalLabelPosition=bottom;verticalAlign=top;imageAspect=1;aspect=fixed;image=img/clipart/Gear_128x128.png" parent="1" vertex="1">
          <mxGeometry x="954" y="429.5" width="52" height="61" as="geometry" />
        </mxCell>
        <mxCell id="HFtfVX_ovQ1HP7ZbWY39-50" value="" style="shape=image;html=1;verticalLabelPosition=bottom;verticalAlign=top;imageAspect=1;aspect=fixed;image=img/clipart/Gear_128x128.png" parent="1" vertex="1">
          <mxGeometry x="1214" y="419.5" width="52" height="61" as="geometry" />
        </mxCell>
        <mxCell id="HFtfVX_ovQ1HP7ZbWY39-51" value="" style="shape=image;html=1;verticalLabelPosition=bottom;verticalAlign=top;imageAspect=1;aspect=fixed;image=img/clipart/Gear_128x128.png" parent="1" vertex="1">
          <mxGeometry x="1474" y="419.5" width="52" height="61" as="geometry" />
        </mxCell>
        <mxCell id="HFtfVX_ovQ1HP7ZbWY39-52" value="" style="rounded=0;whiteSpace=wrap;html=1;" parent="1" vertex="1">
          <mxGeometry x="920" y="660" width="630" height="250" as="geometry" />
        </mxCell>
        <mxCell id="HFtfVX_ovQ1HP7ZbWY39-53" value="" style="rounded=0;whiteSpace=wrap;html=1;fillColor=#f8cecc;strokeColor=#b85450;" parent="1" vertex="1">
          <mxGeometry x="935" y="680" width="90" height="90" as="geometry" />
        </mxCell>
        <mxCell id="HFtfVX_ovQ1HP7ZbWY39-54" value="" style="rounded=0;whiteSpace=wrap;html=1;fillColor=#f8cecc;strokeColor=#b85450;" parent="1" vertex="1">
          <mxGeometry x="1450" y="680" width="90" height="90" as="geometry" />
        </mxCell>
        <mxCell id="HFtfVX_ovQ1HP7ZbWY39-55" value="" style="rounded=0;whiteSpace=wrap;html=1;fillColor=#f8cecc;strokeColor=#b85450;" parent="1" vertex="1">
          <mxGeometry x="935" y="800" width="90" height="90" as="geometry" />
        </mxCell>
        <mxCell id="HFtfVX_ovQ1HP7ZbWY39-56" value="" style="rounded=0;whiteSpace=wrap;html=1;fillColor=#f8cecc;strokeColor=#b85450;" parent="1" vertex="1">
          <mxGeometry x="1450" y="800" width="90" height="90" as="geometry" />
        </mxCell>
        <mxCell id="HFtfVX_ovQ1HP7ZbWY39-57" value="" style="rounded=0;whiteSpace=wrap;html=1;fillColor=#f8cecc;strokeColor=#b85450;" parent="1" vertex="1">
          <mxGeometry x="1195" y="740" width="90" height="90" as="geometry" />
        </mxCell>
        <mxCell id="HFtfVX_ovQ1HP7ZbWY39-58" value="" style="shape=image;html=1;verticalLabelPosition=bottom;verticalAlign=top;imageAspect=1;aspect=fixed;image=img/clipart/Gear_128x128.png" parent="1" vertex="1">
          <mxGeometry x="954" y="694.5" width="52" height="61" as="geometry" />
        </mxCell>
        <mxCell id="HFtfVX_ovQ1HP7ZbWY39-59" value="" style="shape=image;html=1;verticalLabelPosition=bottom;verticalAlign=top;imageAspect=1;aspect=fixed;image=img/clipart/Gear_128x128.png" parent="1" vertex="1">
          <mxGeometry x="1474" y="694.5" width="52" height="61" as="geometry" />
        </mxCell>
        <mxCell id="HFtfVX_ovQ1HP7ZbWY39-60" value="" style="shape=image;html=1;verticalLabelPosition=bottom;verticalAlign=top;imageAspect=1;aspect=fixed;image=img/clipart/Gear_128x128.png" parent="1" vertex="1">
          <mxGeometry x="954" y="814.5" width="52" height="61" as="geometry" />
        </mxCell>
        <mxCell id="HFtfVX_ovQ1HP7ZbWY39-61" value="" style="shape=image;html=1;verticalLabelPosition=bottom;verticalAlign=top;imageAspect=1;aspect=fixed;image=img/clipart/Gear_128x128.png" parent="1" vertex="1">
          <mxGeometry x="1474" y="814.5" width="52" height="61" as="geometry" />
        </mxCell>
        <mxCell id="HFtfVX_ovQ1HP7ZbWY39-62" value="" style="shape=image;html=1;verticalLabelPosition=bottom;verticalAlign=top;imageAspect=1;aspect=fixed;image=img/clipart/Gear_128x128.png" parent="1" vertex="1">
          <mxGeometry x="1214" y="755.5" width="52" height="61" as="geometry" />
        </mxCell>
        <mxCell id="HFtfVX_ovQ1HP7ZbWY39-64" style="edgeStyle=orthogonalEdgeStyle;rounded=0;orthogonalLoop=1;jettySize=auto;html=1;" parent="1" source="HFtfVX_ovQ1HP7ZbWY39-63" target="HFtfVX_ovQ1HP7ZbWY39-2" edge="1">
          <mxGeometry relative="1" as="geometry" />
        </mxCell>
        <mxCell id="HFtfVX_ovQ1HP7ZbWY39-63" value="&lt;font style=&quot;font-size: 36px;&quot;&gt;sticy&lt;/font&gt;" style="text;html=1;align=center;verticalAlign=middle;whiteSpace=wrap;rounded=0;" parent="1" vertex="1">
          <mxGeometry x="660" y="30" width="60" height="30" as="geometry" />
        </mxCell>
        <mxCell id="HFtfVX_ovQ1HP7ZbWY39-66" value="" style="rounded=0;whiteSpace=wrap;html=1;fillColor=#dae8fc;strokeColor=#6c8ebf;" parent="1" vertex="1">
          <mxGeometry x="930" y="970" width="620" height="260" as="geometry" />
        </mxCell>
        <mxCell id="HFtfVX_ovQ1HP7ZbWY39-67" value="" style="triangle;whiteSpace=wrap;html=1;" parent="1" vertex="1">
          <mxGeometry x="1211" y="1050" width="60" height="80" as="geometry" />
        </mxCell>
        <mxCell id="SUSWmpNyNVEJPsFfWAn5-1" value="" style="rounded=0;whiteSpace=wrap;html=1;" vertex="1" parent="1">
          <mxGeometry x="120" y="1840" width="1470" height="2070" as="geometry" />
        </mxCell>
        <mxCell id="SUSWmpNyNVEJPsFfWAn5-2" value="" style="rounded=0;whiteSpace=wrap;html=1;" vertex="1" parent="1">
          <mxGeometry x="180" y="2015" width="650" height="840" as="geometry" />
        </mxCell>
        <mxCell id="SUSWmpNyNVEJPsFfWAn5-3" value="" style="rounded=0;whiteSpace=wrap;html=1;" vertex="1" parent="1">
          <mxGeometry x="900" y="1980" width="650" height="840" as="geometry" />
        </mxCell>
        <mxCell id="SUSWmpNyNVEJPsFfWAn5-4" value="" style="rounded=0;whiteSpace=wrap;html=1;" vertex="1" parent="1">
          <mxGeometry x="190" y="2890" width="650" height="840" as="geometry" />
        </mxCell>
        <mxCell id="SUSWmpNyNVEJPsFfWAn5-5" value="" style="rounded=0;whiteSpace=wrap;html=1;" vertex="1" parent="1">
          <mxGeometry x="916" y="2890" width="650" height="840" as="geometry" />
        </mxCell>
        <mxCell id="SUSWmpNyNVEJPsFfWAn5-6" value="&lt;h1 style=&quot;margin-top: 0px;&quot;&gt;Heading&lt;/h1&gt;&lt;p&gt;&lt;font style=&quot;font-size: 24px;&quot;&gt;Lorem ipsum dolor sit amet, consectetur adipisicing elit, sed do eiusmod tempor incididunt ut labore et dolore magna aliqua.&lt;/font&gt;&lt;/p&gt;" style="text;html=1;whiteSpace=wrap;overflow=hidden;rounded=0;" vertex="1" parent="1">
          <mxGeometry x="210" y="2180" width="570" height="270" as="geometry" />
        </mxCell>
        <mxCell id="SUSWmpNyNVEJPsFfWAn5-7" value="&lt;h1 style=&quot;margin-top: 0px;&quot;&gt;Heading&lt;/h1&gt;&lt;p&gt;&lt;font style=&quot;font-size: 24px;&quot;&gt;Lorem ipsum dolor sit amet, consectetur adipisicing elit, sed do eiusmod tempor incididunt ut labore et dolore magna aliqua.&lt;/font&gt;&lt;/p&gt;" style="text;html=1;whiteSpace=wrap;overflow=hidden;rounded=0;fillColor=#dae8fc;strokeColor=#6c8ebf;" vertex="1" parent="1">
          <mxGeometry x="210" y="2380" width="570" height="270" as="geometry" />
        </mxCell>
        <mxCell id="SUSWmpNyNVEJPsFfWAn5-8" value="&lt;h1 style=&quot;margin-top: 0px;&quot;&gt;Heading&lt;/h1&gt;&lt;p&gt;&lt;font style=&quot;font-size: 24px;&quot;&gt;Lorem ipsum dolor sit amet, consectetur adipisicing elit, sed do eiusmod tempor incididunt ut labore et dolore magna aliqua.&lt;/font&gt;&lt;/p&gt;" style="text;html=1;whiteSpace=wrap;overflow=hidden;rounded=0;" vertex="1" parent="1">
          <mxGeometry x="210" y="2610" width="570" height="270" as="geometry" />
        </mxCell>
        <mxCell id="SUSWmpNyNVEJPsFfWAn5-10" value="" style="rounded=0;whiteSpace=wrap;html=1;fillColor=#d5e8d4;strokeColor=#82b366;" vertex="1" parent="1">
          <mxGeometry x="220" y="2060" width="590" height="90" as="geometry" />
        </mxCell>
        <mxCell id="SUSWmpNyNVEJPsFfWAn5-11" value="&lt;h1 style=&quot;margin-top: 0px;&quot;&gt;Heading&lt;/h1&gt;&lt;p&gt;&lt;font style=&quot;font-size: 24px;&quot;&gt;Lorem ipsum dolor sit amet, consectetur adipisicing elit, sed do eiusmod tempor incididunt ut labore et dolore magna aliqua.&lt;/font&gt;&lt;/p&gt;" style="text;html=1;whiteSpace=wrap;overflow=hidden;rounded=0;" vertex="1" parent="1">
          <mxGeometry x="935" y="2140" width="570" height="270" as="geometry" />
        </mxCell>
        <mxCell id="SUSWmpNyNVEJPsFfWAn5-12" value="&lt;h1 style=&quot;margin-top: 0px;&quot;&gt;Heading&lt;/h1&gt;&lt;p&gt;&lt;font style=&quot;font-size: 24px;&quot;&gt;Lorem ipsum dolor sit amet, consectetur adipisicing elit, sed do eiusmod tempor incididunt ut labore et dolore magna aliqua.&lt;/font&gt;&lt;/p&gt;" style="text;html=1;whiteSpace=wrap;overflow=hidden;rounded=0;" vertex="1" parent="1">
          <mxGeometry x="920" y="2300" width="570" height="270" as="geometry" />
        </mxCell>
        <mxCell id="SUSWmpNyNVEJPsFfWAn5-13" value="&lt;h1 style=&quot;margin-top: 0px;&quot;&gt;Heading&lt;/h1&gt;&lt;p&gt;&lt;font style=&quot;font-size: 24px;&quot;&gt;Lorem ipsum dolor sit amet, consectetur adipisicing elit, sed do eiusmod tempor incididunt ut labore et dolore magna aliqua.&lt;/font&gt;&lt;/p&gt;" style="text;html=1;whiteSpace=wrap;overflow=hidden;rounded=0;fillColor=#f8cecc;strokeColor=#b85450;" vertex="1" parent="1">
          <mxGeometry x="935" y="2500" width="570" height="270" as="geometry" />
        </mxCell>
        <mxCell id="SUSWmpNyNVEJPsFfWAn5-14" value="" style="rounded=0;whiteSpace=wrap;html=1;fillColor=#e1d5e7;strokeColor=#9673a6;" vertex="1" parent="1">
          <mxGeometry x="930" y="2050" width="580" height="60" as="geometry" />
        </mxCell>
        <mxCell id="SUSWmpNyNVEJPsFfWAn5-15" value="" style="rounded=0;whiteSpace=wrap;html=1;fillColor=#dae8fc;strokeColor=#6c8ebf;" vertex="1" parent="1">
          <mxGeometry x="230" y="2950" width="580" height="60" as="geometry" />
        </mxCell>
        <mxCell id="SUSWmpNyNVEJPsFfWAn5-16" value="&lt;h1 style=&quot;margin-top: 0px;&quot;&gt;Heading&lt;/h1&gt;&lt;p&gt;&lt;font style=&quot;font-size: 24px;&quot;&gt;Lorem ipsum dolor sit amet, consectetur adipisicing elit, sed do eiusmod tempor incididunt ut labore et dolore magna aliqua.&lt;/font&gt;&lt;/p&gt;" style="text;html=1;whiteSpace=wrap;overflow=hidden;rounded=0;" vertex="1" parent="1">
          <mxGeometry x="230" y="3060" width="570" height="270" as="geometry" />
        </mxCell>
        <mxCell id="SUSWmpNyNVEJPsFfWAn5-17" value="&lt;h1 style=&quot;margin-top: 0px;&quot;&gt;Heading&lt;/h1&gt;&lt;p&gt;&lt;font style=&quot;font-size: 24px;&quot;&gt;Lorem ipsum dolor sit amet, consectetur adipisicing elit, sed do eiusmod tempor incididunt ut labore et dolore magna aliqua.&lt;/font&gt;&lt;/p&gt;" style="text;html=1;whiteSpace=wrap;overflow=hidden;rounded=0;" vertex="1" parent="1">
          <mxGeometry x="220" y="3260" width="570" height="270" as="geometry" />
        </mxCell>
        <mxCell id="SUSWmpNyNVEJPsFfWAn5-18" value="&lt;h1 style=&quot;margin-top: 0px;&quot;&gt;Heading&lt;/h1&gt;&lt;p&gt;&lt;font style=&quot;font-size: 24px;&quot;&gt;Lorem ipsum dolor sit amet, consectetur adipisicing elit, sed do eiusmod tempor incididunt ut labore et dolore magna aliqua.&lt;/font&gt;&lt;/p&gt;" style="text;html=1;whiteSpace=wrap;overflow=hidden;rounded=0;" vertex="1" parent="1">
          <mxGeometry x="220" y="3470" width="570" height="270" as="geometry" />
        </mxCell>
        <mxCell id="SUSWmpNyNVEJPsFfWAn5-19" value="&lt;h1 style=&quot;margin-top: 0px;&quot;&gt;Heading&lt;/h1&gt;&lt;p&gt;&lt;font style=&quot;font-size: 24px;&quot;&gt;Lorem ipsum dolor sit amet, consectetur adipisicing elit, sed do eiusmod tempor incididunt ut labore et dolore magna aliqua.&lt;/font&gt;&lt;/p&gt;" style="text;html=1;whiteSpace=wrap;overflow=hidden;rounded=0;" vertex="1" parent="1">
          <mxGeometry x="956" y="3480" width="570" height="270" as="geometry" />
        </mxCell>
        <mxCell id="SUSWmpNyNVEJPsFfWAn5-20" value="&lt;h1 style=&quot;margin-top: 0px;&quot;&gt;Heading&lt;/h1&gt;&lt;p&gt;&lt;font style=&quot;font-size: 24px;&quot;&gt;Lorem ipsum dolor sit amet, consectetur adipisicing elit, sed do eiusmod tempor incididunt ut labore et dolore magna aliqua.&lt;/font&gt;&lt;/p&gt;" style="text;html=1;whiteSpace=wrap;overflow=hidden;rounded=0;" vertex="1" parent="1">
          <mxGeometry x="950" y="3290" width="570" height="270" as="geometry" />
        </mxCell>
        <mxCell id="SUSWmpNyNVEJPsFfWAn5-21" value="&lt;h1 style=&quot;margin-top: 0px;&quot;&gt;Heading&lt;/h1&gt;&lt;p&gt;&lt;font style=&quot;font-size: 24px;&quot;&gt;Lorem ipsum dolor sit amet, consectetur adipisicing elit, sed do eiusmod tempor incididunt ut labore et dolore magna aliqua.&lt;/font&gt;&lt;/p&gt;" style="text;html=1;whiteSpace=wrap;overflow=hidden;rounded=0;" vertex="1" parent="1">
          <mxGeometry x="950" y="3110" width="570" height="270" as="geometry" />
        </mxCell>
        <mxCell id="SUSWmpNyNVEJPsFfWAn5-23" value="" style="rounded=0;whiteSpace=wrap;html=1;fillColor=#f8cecc;strokeColor=#b85450;" vertex="1" parent="1">
          <mxGeometry x="956" y="2950" width="580" height="60" as="geometry" />
        </mxCell>
        <mxCell id="SUSWmpNyNVEJPsFfWAn5-39" value="" style="rounded=0;whiteSpace=wrap;html=1;" vertex="1" parent="1">
          <mxGeometry x="81" y="4320" width="1589" height="5300" as="geometry" />
        </mxCell>
        <mxCell id="SUSWmpNyNVEJPsFfWAn5-40" value="" style="rounded=0;whiteSpace=wrap;html=1;" vertex="1" parent="1">
          <mxGeometry x="150" y="4440" width="1400" height="140" as="geometry" />
        </mxCell>
        <mxCell id="SUSWmpNyNVEJPsFfWAn5-41" value="" style="rounded=0;whiteSpace=wrap;html=1;" vertex="1" parent="1">
          <mxGeometry x="190" y="4480" width="280" height="60" as="geometry" />
        </mxCell>
        <mxCell id="SUSWmpNyNVEJPsFfWAn5-42" value="" style="rounded=0;whiteSpace=wrap;html=1;" vertex="1" parent="1">
          <mxGeometry x="520" y="4480" width="280" height="60" as="geometry" />
        </mxCell>
        <mxCell id="SUSWmpNyNVEJPsFfWAn5-43" value="" style="rounded=0;whiteSpace=wrap;html=1;" vertex="1" parent="1">
          <mxGeometry x="850" y="4480" width="280" height="60" as="geometry" />
        </mxCell>
        <mxCell id="SUSWmpNyNVEJPsFfWAn5-44" value="" style="rounded=0;whiteSpace=wrap;html=1;" vertex="1" parent="1">
          <mxGeometry x="1195" y="4480" width="280" height="60" as="geometry" />
        </mxCell>
        <mxCell id="SUSWmpNyNVEJPsFfWAn5-45" value="" style="whiteSpace=wrap;html=1;aspect=fixed;" vertex="1" parent="1">
          <mxGeometry x="125" y="4730" width="550" height="550" as="geometry" />
        </mxCell>
        <mxCell id="SUSWmpNyNVEJPsFfWAn5-46" value="&lt;h1 style=&quot;margin-top: 0px;&quot;&gt;&lt;font style=&quot;font-size: 48px;&quot;&gt;Heading&lt;/font&gt;&lt;/h1&gt;&lt;p&gt;&lt;span style=&quot;font-size: 36px;&quot;&gt;Lorem ipsum dolor sit amet, consectetur adipisicing elit, sed do eiusmod tempor incididunt ut labore et dolore magna aliqua.&lt;/span&gt;&lt;span style=&quot;font-size: 36px; background-color: initial;&quot;&gt;Lorem ipsum dolor sit amet, consectetur adipisicing elit, sed do eiusmod tempor incididunt ut labore et dolore magna aliqua.&lt;/span&gt;&lt;span style=&quot;font-size: 36px; background-color: initial;&quot;&gt;Lorem ipsum dolor sit amet, consectetur adipisicing elit, sed do eiusmod tempor incididunt ut labore et dolore magna aliqua.&lt;/span&gt;&lt;span style=&quot;font-size: 36px; background-color: initial;&quot;&gt;Lorem ipsum dolor sit amet, consectetur adipisicing elit, sed do eiusmod tempor incididunt ut labore et dolore magna aliqua.&lt;/span&gt;&lt;/p&gt;" style="text;html=1;whiteSpace=wrap;overflow=hidden;rounded=0;" vertex="1" parent="1">
          <mxGeometry x="771" y="4730" width="809" height="640" as="geometry" />
        </mxCell>
        <mxCell id="SUSWmpNyNVEJPsFfWAn5-47" value="" style="rounded=0;whiteSpace=wrap;html=1;fillColor=#f8cecc;strokeColor=#b85450;" vertex="1" parent="1">
          <mxGeometry x="771" y="5320" width="120" height="60" as="geometry" />
        </mxCell>
        <mxCell id="SUSWmpNyNVEJPsFfWAn5-48" value="&lt;h1 style=&quot;margin-top: 0px;&quot;&gt;&lt;font style=&quot;font-size: 48px;&quot;&gt;Heading&lt;/font&gt;&lt;/h1&gt;&lt;p&gt;&lt;span style=&quot;font-size: 36px;&quot;&gt;Lorem ipsum dolor sit amet, consectetur adipisicing elit, sed do eiusmod tempor incididunt ut labore et dolore magna aliqua.&lt;/span&gt;&lt;span style=&quot;font-size: 36px; background-color: initial;&quot;&gt;Lorem ipsum dolor sit amet, consectetur adipisicing elit, sed do eiusmod tempor incididunt ut labore et dolore magna aliqua.&lt;/span&gt;&lt;span style=&quot;font-size: 36px; background-color: initial;&quot;&gt;Lorem ipsum dolor sit amet, consectetur adipisicing elit, sed do eiusmod tempor incididunt ut labore et dolore magna aliqua.&lt;/span&gt;&lt;span style=&quot;font-size: 36px; background-color: initial;&quot;&gt;Lorem ipsum dolor sit amet, consectetur adipisicing elit, sed do eiusmod tempor incididunt ut labore et dolore magna aliqua.&lt;/span&gt;&lt;/p&gt;" style="text;html=1;whiteSpace=wrap;overflow=hidden;rounded=0;" vertex="1" parent="1">
          <mxGeometry x="107" y="5550" width="1563" height="640" as="geometry" />
        </mxCell>
        <mxCell id="SUSWmpNyNVEJPsFfWAn5-49" value="&lt;h1 style=&quot;margin-top: 0px;&quot;&gt;&lt;font style=&quot;font-size: 48px;&quot;&gt;Heading&lt;/font&gt;&lt;/h1&gt;&lt;p&gt;&lt;span style=&quot;font-size: 36px;&quot;&gt;Lorem ipsum dolor sit amet, consectetur adipisicing elit, sed do eiusmod tempor incididunt ut labore et dolore magna aliqua.&lt;/span&gt;&lt;span style=&quot;font-size: 36px; background-color: initial;&quot;&gt;Lorem ipsum dolor sit amet, consectetur adipisicing elit, sed do eiusmod tempor incididunt ut labore et dolore magna aliqua.&lt;/span&gt;&lt;span style=&quot;font-size: 36px; background-color: initial;&quot;&gt;Lorem ipsum dolor sit amet, consectetur adipisicing elit, sed do eiusmod tempor incididunt ut labore et dolore magna aliqua.&lt;/span&gt;&lt;span style=&quot;font-size: 36px; background-color: initial;&quot;&gt;Lorem ipsum dolor sit amet, consectetur adipisicing elit, sed do eiusmod tempor incididunt ut labore et dolore magna aliqua.&lt;/span&gt;&lt;/p&gt;" style="text;html=1;whiteSpace=wrap;overflow=hidden;rounded=0;" vertex="1" parent="1">
          <mxGeometry x="110" y="6130" width="1563" height="640" as="geometry" />
        </mxCell>
        <mxCell id="SUSWmpNyNVEJPsFfWAn5-50" value="&lt;h1 style=&quot;margin-top: 0px;&quot;&gt;&lt;font style=&quot;font-size: 48px;&quot;&gt;Heading&lt;/font&gt;&lt;/h1&gt;&lt;p&gt;&lt;span style=&quot;font-size: 36px;&quot;&gt;Lorem ipsum dolor sit amet, consectetur adipisicing elit, sed do eiusmod tempor incididunt ut labore et dolore magna aliqua.&lt;/span&gt;&lt;span style=&quot;font-size: 36px; background-color: initial;&quot;&gt;Lorem ipsum dolor sit amet, consectetur adipisicing elit, sed do eiusmod tempor incididunt ut labore et dolore magna aliqua.&lt;/span&gt;&lt;span style=&quot;font-size: 36px; background-color: initial;&quot;&gt;Lorem ipsum dolor sit amet, consectetur adipisicing elit, sed do eiusmod tempor incididunt ut labore et dolore magna aliqua.&lt;/span&gt;&lt;span style=&quot;font-size: 36px; background-color: initial;&quot;&gt;Lorem ipsum dolor sit amet, consectetur adipisicing elit, sed do eiusmod tempor incididunt ut labore et dolore magna aliqua.&lt;/span&gt;&lt;/p&gt;" style="text;html=1;whiteSpace=wrap;overflow=hidden;rounded=0;" vertex="1" parent="1">
          <mxGeometry x="110" y="6680" width="1563" height="640" as="geometry" />
        </mxCell>
        <mxCell id="SUSWmpNyNVEJPsFfWAn5-51" value="&lt;h1 style=&quot;margin-top: 0px;&quot;&gt;&lt;font style=&quot;font-size: 48px;&quot;&gt;Heading&lt;/font&gt;&lt;/h1&gt;&lt;p&gt;&lt;span style=&quot;font-size: 36px;&quot;&gt;Lorem ipsum dolor sit amet, consectetur adipisicing elit, sed do eiusmod tempor incididunt ut labore et dolore magna aliqua.&lt;/span&gt;&lt;span style=&quot;font-size: 36px; background-color: initial;&quot;&gt;Lorem ipsum dolor sit amet, consectetur adipisicing elit, sed do eiusmod tempor incididunt ut labore et dolore magna aliqua.&lt;/span&gt;&lt;span style=&quot;font-size: 36px; background-color: initial;&quot;&gt;Lorem ipsum dolor sit amet, consectetur adipisicing elit, sed do eiusmod tempor incididunt ut labore et dolore magna aliqua.&lt;/span&gt;&lt;span style=&quot;font-size: 36px; background-color: initial;&quot;&gt;Lorem ipsum dolor sit amet, consectetur adipisicing elit, sed do eiusmod tempor incididunt ut labore et dolore magna aliqua.&lt;/span&gt;&lt;/p&gt;" style="text;html=1;whiteSpace=wrap;overflow=hidden;rounded=0;" vertex="1" parent="1">
          <mxGeometry x="91" y="7279" width="1563" height="640" as="geometry" />
        </mxCell>
        <mxCell id="SUSWmpNyNVEJPsFfWAn5-52" value="Label" style="label;whiteSpace=wrap;html=1;align=center;verticalAlign=bottom;spacingLeft=0;spacingBottom=4;imageAlign=center;imageVerticalAlign=top;image=img/clipart/Gear_128x128.png" vertex="1" parent="1">
          <mxGeometry x="125" y="7810" width="405" height="380" as="geometry" />
        </mxCell>
        <mxCell id="SUSWmpNyNVEJPsFfWAn5-53" value="Label" style="label;whiteSpace=wrap;html=1;align=center;verticalAlign=bottom;spacingLeft=0;spacingBottom=4;imageAlign=center;imageVerticalAlign=top;image=img/clipart/Gear_128x128.png" vertex="1" parent="1">
          <mxGeometry x="628.5" y="7803" width="405" height="380" as="geometry" />
        </mxCell>
        <mxCell id="SUSWmpNyNVEJPsFfWAn5-54" value="Label" style="label;whiteSpace=wrap;html=1;align=center;verticalAlign=bottom;spacingLeft=0;spacingBottom=4;imageAlign=center;imageVerticalAlign=top;image=img/clipart/Gear_128x128.png" vertex="1" parent="1">
          <mxGeometry x="1145" y="7810" width="405" height="380" as="geometry" />
        </mxCell>
        <mxCell id="SUSWmpNyNVEJPsFfWAn5-55" value="Label" style="label;whiteSpace=wrap;html=1;align=center;verticalAlign=bottom;spacingLeft=0;spacingBottom=4;imageAlign=center;imageVerticalAlign=top;image=img/clipart/Gear_128x128.png" vertex="1" parent="1">
          <mxGeometry x="150" y="8260" width="405" height="380" as="geometry" />
        </mxCell>
        <mxCell id="SUSWmpNyNVEJPsFfWAn5-56" value="Label" style="label;whiteSpace=wrap;html=1;align=center;verticalAlign=bottom;spacingLeft=0;spacingBottom=4;imageAlign=center;imageVerticalAlign=top;image=img/clipart/Gear_128x128.png" vertex="1" parent="1">
          <mxGeometry x="655" y="8290" width="405" height="380" as="geometry" />
        </mxCell>
        <mxCell id="SUSWmpNyNVEJPsFfWAn5-57" value="Label" style="label;whiteSpace=wrap;html=1;align=center;verticalAlign=bottom;spacingLeft=0;spacingBottom=4;imageAlign=center;imageVerticalAlign=top;image=img/clipart/Gear_128x128.png" vertex="1" parent="1">
          <mxGeometry x="1161" y="8260" width="405" height="380" as="geometry" />
        </mxCell>
        <mxCell id="SUSWmpNyNVEJPsFfWAn5-58" value="" style="ellipse;shape=doubleEllipse;whiteSpace=wrap;html=1;aspect=fixed;" vertex="1" parent="1">
          <mxGeometry x="150" y="8768" width="700" height="700" as="geometry" />
        </mxCell>
        <mxCell id="SUSWmpNyNVEJPsFfWAn5-59" value="" style="triangle;whiteSpace=wrap;html=1;fillColor=#dae8fc;strokeColor=#6c8ebf;" vertex="1" parent="1">
          <mxGeometry x="380" y="8950" width="320" height="308" as="geometry" />
        </mxCell>
        <mxCell id="SUSWmpNyNVEJPsFfWAn5-61" value="&lt;h1 style=&quot;margin-top: 0px;&quot;&gt;&lt;font style=&quot;font-size: 48px;&quot;&gt;Heading&lt;/font&gt;&lt;/h1&gt;&lt;p&gt;&lt;span style=&quot;font-size: 36px;&quot;&gt;Lorem ipsum dolor sit amet, consectetur adipisicing elit, sed do eiusmod tempor incididunt ut labore et dolore magna aliqua.&lt;/span&gt;&lt;span style=&quot;font-size: 36px; background-color: initial;&quot;&gt;Lorem ipsum dolor sit amet, consectetur adipisicing elit, sed do eiusmod tempor incididunt ut labore et dolore magna aliqua.&lt;/span&gt;&lt;span style=&quot;font-size: 36px; background-color: initial;&quot;&gt;Lorem ipsum dolor sit amet, consectetur adipisicing elit, sed do eiusmod tempor incididunt ut labore et dolore magna aliqua.&lt;/span&gt;&lt;span style=&quot;font-size: 36px; background-color: initial;&quot;&gt;Lorem ipsum dolor sit amet, consectetur adipisicing elit, sed do eiusmod tempor incididunt ut labore et dolore magna aliqua.&lt;/span&gt;&lt;/p&gt;" style="text;html=1;whiteSpace=wrap;overflow=hidden;rounded=0;" vertex="1" parent="1">
          <mxGeometry x="930" y="8800" width="675" height="710" as="geometry" />
        </mxCell>
      </root>
    </mxGraphModel>
  </diagram>
</mxfile>
